<mxfile host="app.diagrams.net" agent="Mozilla/5.0 (Macintosh; Intel Mac OS X 10_15_7) AppleWebKit/537.36 (KHTML, like Gecko) Chrome/127.0.0.0 Safari/537.36" version="24.8.2">
  <diagram id="C5RBs43oDa-KdzZeNtuy" name="Page-1">
    <mxGraphModel dx="4023" dy="1220" grid="1" gridSize="10" guides="1" tooltips="1" connect="1" arrows="1" fold="1" page="1" pageScale="1" pageWidth="1169" pageHeight="1654" math="0" shadow="0">
      <root>
        <mxCell id="WIyWlLk6GJQsqaUBKTNV-0" />
        <mxCell id="WIyWlLk6GJQsqaUBKTNV-1" parent="WIyWlLk6GJQsqaUBKTNV-0" />
        <mxCell id="oc4WBK3pilswLX8HJTRZ-0" value="Deployment to AWS inc&lt;div&gt;1. Docker&lt;/div&gt;&lt;div&gt;2. Git Actions&lt;/div&gt;&lt;div&gt;3. ECS&lt;/div&gt;&lt;div&gt;4. ECR&lt;/div&gt;" style="text;html=1;align=center;verticalAlign=middle;resizable=0;points=[];autosize=1;strokeColor=none;fillColor=none;" parent="WIyWlLk6GJQsqaUBKTNV-1" vertex="1">
          <mxGeometry x="-2320" y="158" width="150" height="90" as="geometry" />
        </mxCell>
        <mxCell id="Hp0voM-NAS6thbAt5nUC-4" value="" style="edgeStyle=orthogonalEdgeStyle;rounded=0;orthogonalLoop=1;jettySize=auto;html=1;" parent="WIyWlLk6GJQsqaUBKTNV-1" source="Hp0voM-NAS6thbAt5nUC-1" target="Hp0voM-NAS6thbAt5nUC-3" edge="1">
          <mxGeometry relative="1" as="geometry" />
        </mxCell>
        <mxCell id="Hp0voM-NAS6thbAt5nUC-1" value="start" style="shape=hexagon;perimeter=hexagonPerimeter2;whiteSpace=wrap;html=1;fixedSize=1;" parent="WIyWlLk6GJQsqaUBKTNV-1" vertex="1">
          <mxGeometry x="-2310" y="300" width="130" height="40" as="geometry" />
        </mxCell>
        <mxCell id="Hp0voM-NAS6thbAt5nUC-6" value="" style="edgeStyle=orthogonalEdgeStyle;rounded=0;orthogonalLoop=1;jettySize=auto;html=1;" parent="WIyWlLk6GJQsqaUBKTNV-1" source="Hp0voM-NAS6thbAt5nUC-3" target="Hp0voM-NAS6thbAt5nUC-5" edge="1">
          <mxGeometry relative="1" as="geometry" />
        </mxCell>
        <mxCell id="Hp0voM-NAS6thbAt5nUC-3" value="Create Dockerfile" style="whiteSpace=wrap;html=1;" parent="WIyWlLk6GJQsqaUBKTNV-1" vertex="1">
          <mxGeometry x="-2095" y="290" width="120" height="60" as="geometry" />
        </mxCell>
        <mxCell id="P7EruWXVaZxcQuZ8MT2v-4" value="" style="edgeStyle=orthogonalEdgeStyle;rounded=0;orthogonalLoop=1;jettySize=auto;html=1;" edge="1" parent="WIyWlLk6GJQsqaUBKTNV-1" source="Hp0voM-NAS6thbAt5nUC-5" target="P7EruWXVaZxcQuZ8MT2v-3">
          <mxGeometry relative="1" as="geometry" />
        </mxCell>
        <mxCell id="Hp0voM-NAS6thbAt5nUC-5" value="Build docker image" style="whiteSpace=wrap;html=1;" parent="WIyWlLk6GJQsqaUBKTNV-1" vertex="1">
          <mxGeometry x="-1895" y="290" width="120" height="60" as="geometry" />
        </mxCell>
        <mxCell id="P7EruWXVaZxcQuZ8MT2v-0" value="&lt;ul&gt;&lt;li&gt;&lt;pre class=&quot;!overflow-visible&quot;&gt;&lt;div class=&quot;contain-inline-size rounded-md border-[0.5px] border-token-border-medium relative bg-token-sidebar-surface-primary dark:bg-gray-950&quot;&gt;&lt;div class=&quot;overflow-y-auto p-4&quot; dir=&quot;ltr&quot;&gt;&lt;code class=&quot;!whitespace-pre hljs language-bash&quot;&gt;&lt;font style=&quot;font-size: 8px;&quot;&gt;docker build -t &amp;lt;your-image-name&amp;gt;:&amp;lt;tag&amp;gt; .&lt;/font&gt;&lt;br&gt;&lt;/code&gt;&lt;/div&gt;&lt;/div&gt;&lt;/pre&gt;&lt;/li&gt;&lt;/ul&gt;&lt;h3&gt;&lt;/h3&gt;" style="text;whiteSpace=wrap;html=1;" vertex="1" parent="WIyWlLk6GJQsqaUBKTNV-1">
          <mxGeometry x="-1975" y="248" width="240" height="30" as="geometry" />
        </mxCell>
        <mxCell id="P7EruWXVaZxcQuZ8MT2v-8" value="" style="edgeStyle=orthogonalEdgeStyle;rounded=0;orthogonalLoop=1;jettySize=auto;html=1;" edge="1" parent="WIyWlLk6GJQsqaUBKTNV-1" source="P7EruWXVaZxcQuZ8MT2v-3" target="P7EruWXVaZxcQuZ8MT2v-7">
          <mxGeometry relative="1" as="geometry" />
        </mxCell>
        <mxCell id="P7EruWXVaZxcQuZ8MT2v-3" value="Run docker container" style="whiteSpace=wrap;html=1;" vertex="1" parent="WIyWlLk6GJQsqaUBKTNV-1">
          <mxGeometry x="-1695" y="290" width="120" height="60" as="geometry" />
        </mxCell>
        <mxCell id="P7EruWXVaZxcQuZ8MT2v-6" value="&lt;ul&gt;&lt;li&gt;&lt;pre class=&quot;!overflow-visible&quot;&gt;&lt;div class=&quot;contain-inline-size rounded-md border-[0.5px] border-token-border-medium relative bg-token-sidebar-surface-primary dark:bg-gray-950&quot;&gt;&lt;div class=&quot;overflow-y-auto p-4&quot; dir=&quot;ltr&quot;&gt;&lt;code class=&quot;!whitespace-pre hljs language-bash&quot;&gt;&lt;font style=&quot;font-size: 8px;&quot;&gt;docker build -t &amp;lt;your-image-name&amp;gt;:&amp;lt;tag&amp;gt; .&lt;/font&gt;&lt;br&gt;&lt;/code&gt;&lt;/div&gt;&lt;/div&gt;&lt;/pre&gt;&lt;/li&gt;&lt;/ul&gt;&lt;h3&gt;&lt;/h3&gt;" style="text;whiteSpace=wrap;html=1;" vertex="1" parent="WIyWlLk6GJQsqaUBKTNV-1">
          <mxGeometry x="-1755" y="248" width="240" height="30" as="geometry" />
        </mxCell>
        <mxCell id="P7EruWXVaZxcQuZ8MT2v-12" value="" style="edgeStyle=orthogonalEdgeStyle;rounded=0;orthogonalLoop=1;jettySize=auto;html=1;" edge="1" parent="WIyWlLk6GJQsqaUBKTNV-1" source="P7EruWXVaZxcQuZ8MT2v-7" target="P7EruWXVaZxcQuZ8MT2v-11">
          <mxGeometry relative="1" as="geometry" />
        </mxCell>
        <mxCell id="P7EruWXVaZxcQuZ8MT2v-7" value="push docker image to ECR" style="whiteSpace=wrap;html=1;" vertex="1" parent="WIyWlLk6GJQsqaUBKTNV-1">
          <mxGeometry x="-1495" y="290" width="120" height="60" as="geometry" />
        </mxCell>
        <mxCell id="P7EruWXVaZxcQuZ8MT2v-10" value="&lt;font style=&quot;font-size: 8px;&quot;&gt;via push commands in AWS ECR&lt;/font&gt;" style="text;html=1;align=center;verticalAlign=middle;resizable=0;points=[];autosize=1;strokeColor=none;fillColor=none;" vertex="1" parent="WIyWlLk6GJQsqaUBKTNV-1">
          <mxGeometry x="-1505" y="260" width="140" height="30" as="geometry" />
        </mxCell>
        <mxCell id="P7EruWXVaZxcQuZ8MT2v-14" value="" style="edgeStyle=orthogonalEdgeStyle;rounded=0;orthogonalLoop=1;jettySize=auto;html=1;" edge="1" parent="WIyWlLk6GJQsqaUBKTNV-1" source="P7EruWXVaZxcQuZ8MT2v-11" target="P7EruWXVaZxcQuZ8MT2v-13">
          <mxGeometry relative="1" as="geometry" />
        </mxCell>
        <mxCell id="P7EruWXVaZxcQuZ8MT2v-11" value="Configure git actions file to push to ECR" style="whiteSpace=wrap;html=1;" vertex="1" parent="WIyWlLk6GJQsqaUBKTNV-1">
          <mxGeometry x="-1495" y="430" width="120" height="60" as="geometry" />
        </mxCell>
        <mxCell id="P7EruWXVaZxcQuZ8MT2v-20" value="" style="edgeStyle=orthogonalEdgeStyle;rounded=0;orthogonalLoop=1;jettySize=auto;html=1;" edge="1" parent="WIyWlLk6GJQsqaUBKTNV-1" source="P7EruWXVaZxcQuZ8MT2v-13" target="P7EruWXVaZxcQuZ8MT2v-19">
          <mxGeometry relative="1" as="geometry" />
        </mxCell>
        <mxCell id="P7EruWXVaZxcQuZ8MT2v-24" value="" style="edgeStyle=orthogonalEdgeStyle;rounded=0;orthogonalLoop=1;jettySize=auto;html=1;exitX=0;exitY=0.75;exitDx=0;exitDy=0;" edge="1" parent="WIyWlLk6GJQsqaUBKTNV-1">
          <mxGeometry relative="1" as="geometry">
            <mxPoint x="-1295" y="615" as="sourcePoint" />
            <mxPoint x="-1374" y="615" as="targetPoint" />
            <Array as="points" />
          </mxGeometry>
        </mxCell>
        <mxCell id="P7EruWXVaZxcQuZ8MT2v-27" value="" style="edgeStyle=orthogonalEdgeStyle;rounded=0;orthogonalLoop=1;jettySize=auto;html=1;" edge="1" parent="WIyWlLk6GJQsqaUBKTNV-1">
          <mxGeometry relative="1" as="geometry">
            <mxPoint x="-1375" y="580" as="sourcePoint" />
            <mxPoint x="-1295" y="580" as="targetPoint" />
          </mxGeometry>
        </mxCell>
        <mxCell id="P7EruWXVaZxcQuZ8MT2v-13" value="Create a new ECS cluter" style="whiteSpace=wrap;html=1;" vertex="1" parent="WIyWlLk6GJQsqaUBKTNV-1">
          <mxGeometry x="-1495" y="570" width="120" height="60" as="geometry" />
        </mxCell>
        <mxCell id="P7EruWXVaZxcQuZ8MT2v-31" value="" style="edgeStyle=orthogonalEdgeStyle;rounded=0;orthogonalLoop=1;jettySize=auto;html=1;" edge="1" parent="WIyWlLk6GJQsqaUBKTNV-1" source="P7EruWXVaZxcQuZ8MT2v-19" target="P7EruWXVaZxcQuZ8MT2v-30">
          <mxGeometry relative="1" as="geometry" />
        </mxCell>
        <mxCell id="P7EruWXVaZxcQuZ8MT2v-35" value="" style="edgeStyle=orthogonalEdgeStyle;rounded=0;orthogonalLoop=1;jettySize=auto;html=1;" edge="1" parent="WIyWlLk6GJQsqaUBKTNV-1" source="P7EruWXVaZxcQuZ8MT2v-19" target="P7EruWXVaZxcQuZ8MT2v-34">
          <mxGeometry relative="1" as="geometry">
            <Array as="points">
              <mxPoint x="-1670" y="520" />
              <mxPoint x="-1670" y="520" />
            </Array>
          </mxGeometry>
        </mxCell>
        <mxCell id="P7EruWXVaZxcQuZ8MT2v-19" value="Create a task definition&amp;nbsp;" style="whiteSpace=wrap;html=1;" vertex="1" parent="WIyWlLk6GJQsqaUBKTNV-1">
          <mxGeometry x="-1695" y="570" width="120" height="60" as="geometry" />
        </mxCell>
        <mxCell id="P7EruWXVaZxcQuZ8MT2v-46" value="" style="edgeStyle=orthogonalEdgeStyle;rounded=0;orthogonalLoop=1;jettySize=auto;html=1;" edge="1" parent="WIyWlLk6GJQsqaUBKTNV-1" source="P7EruWXVaZxcQuZ8MT2v-30" target="P7EruWXVaZxcQuZ8MT2v-45">
          <mxGeometry relative="1" as="geometry" />
        </mxCell>
        <mxCell id="P7EruWXVaZxcQuZ8MT2v-30" value="Create a service" style="whiteSpace=wrap;html=1;" vertex="1" parent="WIyWlLk6GJQsqaUBKTNV-1">
          <mxGeometry x="-1895" y="570" width="120" height="60" as="geometry" />
        </mxCell>
        <mxCell id="P7EruWXVaZxcQuZ8MT2v-34" value="A task definition is a blueprint for the application" style="shape=parallelogram;perimeter=parallelogramPerimeter;whiteSpace=wrap;html=1;fixedSize=1;" vertex="1" parent="WIyWlLk6GJQsqaUBKTNV-1">
          <mxGeometry x="-1695" y="430" width="120" height="60" as="geometry" />
        </mxCell>
        <mxCell id="P7EruWXVaZxcQuZ8MT2v-36" value="&lt;meta charset=&quot;utf-8&quot;&gt;&lt;span style=&quot;color: rgb(0, 0, 0); font-family: Helvetica; font-size: 12px; font-style: normal; font-variant-ligatures: normal; font-variant-caps: normal; font-weight: 400; letter-spacing: normal; orphans: 2; text-align: center; text-indent: 0px; text-transform: none; widows: 2; word-spacing: 0px; -webkit-text-stroke-width: 0px; white-space: normal; background-color: rgb(251, 251, 251); text-decoration-thickness: initial; text-decoration-style: initial; text-decoration-color: initial; display: inline !important; float: none;&quot;&gt;a cluster is a group that can contain various services&lt;/span&gt;" style="shape=parallelogram;perimeter=parallelogramPerimeter;whiteSpace=wrap;html=1;fixedSize=1;" vertex="1" parent="WIyWlLk6GJQsqaUBKTNV-1">
          <mxGeometry x="-1300" y="570" width="120" height="60" as="geometry" />
        </mxCell>
        <mxCell id="P7EruWXVaZxcQuZ8MT2v-38" value="" style="endArrow=classic;html=1;rounded=0;exitX=0.613;exitY=1.017;exitDx=0;exitDy=0;exitPerimeter=0;entryX=0.621;entryY=0.032;entryDx=0;entryDy=0;entryPerimeter=0;" edge="1" parent="WIyWlLk6GJQsqaUBKTNV-1" source="P7EruWXVaZxcQuZ8MT2v-34" target="P7EruWXVaZxcQuZ8MT2v-19">
          <mxGeometry width="50" height="50" relative="1" as="geometry">
            <mxPoint x="-1750" y="670" as="sourcePoint" />
            <mxPoint x="-1700" y="620" as="targetPoint" />
          </mxGeometry>
        </mxCell>
        <mxCell id="P7EruWXVaZxcQuZ8MT2v-40" value="" style="edgeStyle=orthogonalEdgeStyle;rounded=0;orthogonalLoop=1;jettySize=auto;html=1;" edge="1" parent="WIyWlLk6GJQsqaUBKTNV-1">
          <mxGeometry relative="1" as="geometry">
            <mxPoint x="-1870" y="570" as="sourcePoint" />
            <mxPoint x="-1870" y="490" as="targetPoint" />
            <Array as="points">
              <mxPoint x="-1870" y="530" />
              <mxPoint x="-1870" y="530" />
            </Array>
          </mxGeometry>
        </mxCell>
        <mxCell id="P7EruWXVaZxcQuZ8MT2v-41" value="" style="endArrow=classic;html=1;rounded=0;exitX=0.613;exitY=1.017;exitDx=0;exitDy=0;exitPerimeter=0;entryX=0.621;entryY=0.032;entryDx=0;entryDy=0;entryPerimeter=0;" edge="1" parent="WIyWlLk6GJQsqaUBKTNV-1">
          <mxGeometry width="50" height="50" relative="1" as="geometry">
            <mxPoint x="-1820" y="490" as="sourcePoint" />
            <mxPoint x="-1819" y="571" as="targetPoint" />
          </mxGeometry>
        </mxCell>
        <mxCell id="P7EruWXVaZxcQuZ8MT2v-42" value="A service is used to run and maintain a specified number of tasks simultaneously in a cluster." style="shape=parallelogram;perimeter=parallelogramPerimeter;whiteSpace=wrap;html=1;fixedSize=1;" vertex="1" parent="WIyWlLk6GJQsqaUBKTNV-1">
          <mxGeometry x="-1940" y="420" width="190" height="70" as="geometry" />
        </mxCell>
        <mxCell id="P7EruWXVaZxcQuZ8MT2v-48" value="" style="edgeStyle=orthogonalEdgeStyle;rounded=0;orthogonalLoop=1;jettySize=auto;html=1;" edge="1" parent="WIyWlLk6GJQsqaUBKTNV-1" source="P7EruWXVaZxcQuZ8MT2v-45" target="P7EruWXVaZxcQuZ8MT2v-47">
          <mxGeometry relative="1" as="geometry" />
        </mxCell>
        <mxCell id="P7EruWXVaZxcQuZ8MT2v-45" value="Run the task" style="whiteSpace=wrap;html=1;" vertex="1" parent="WIyWlLk6GJQsqaUBKTNV-1">
          <mxGeometry x="-2095" y="570" width="120" height="60" as="geometry" />
        </mxCell>
        <mxCell id="P7EruWXVaZxcQuZ8MT2v-47" value="end" style="shape=hexagon;perimeter=hexagonPerimeter2;whiteSpace=wrap;html=1;fixedSize=1;" vertex="1" parent="WIyWlLk6GJQsqaUBKTNV-1">
          <mxGeometry x="-2320" y="580" width="130" height="40" as="geometry" />
        </mxCell>
      </root>
    </mxGraphModel>
  </diagram>
</mxfile>
